<?xml version="1.0" encoding="utf-8"?>
<!-- Generator: Adobe Illustrator 26.0.3, SVG Export Plug-In . SVG Version: 6.00 Build 0)  -->
<svg version="1.1" id="Layer_1" xmlns="http://www.w3.org/2000/svg" xmlns:xlink="http://www.w3.org/1999/xlink" x="0px" y="0px"
	 viewBox="0 0 128.1 64.6" style="enable-background:new 0 0 128.1 64.6;" xml:space="preserve">
<style type="text/css">
	.st0{fill:#FFFFFF;}
	.st1{fill:#B6AFD7;}
	.st2{fill:#EDB8D6;}
	.st3{fill:#FCDBCD;}
</style>
<g>
	<g>
		<path class="st0" d="M15.3,35.3c-0.3,0-0.7,0-1,0c-2.2-0.1-4.3-0.7-6.2-1.6L8,33.6l-0.1-0.1c-1.8-1-3.4-2.5-4.6-4.2
			C1.2,26.3,0,22.4,0,18.7c0-2.4,0.5-4.7,1.4-6.8c0.9-2,2.2-3.9,3.8-5.3c2.1-1.9,4.8-3.3,7.5-3.8l0.1,0c0.8-0.2,1.7-0.2,2.6-0.2
			c3.1,0,6.2,1,8.5,2.7c2.2,1.6,3.8,3.8,4.7,6.4l0.1,0.2l0.1,0.2c0.2,0.7,0.7,2.5-0.1,4.6l0,0c0.4,0.7,0.7,1.5,0.9,2.3l0,0.2
			c0.4,2.2,0.3,4.6-0.4,6.7c-0.9,2.9-2.8,5.5-5.3,7.1C21.5,34.5,18.5,35.3,15.3,35.3L15.3,35.3z"/>
		<path class="st0" d="M40.2,36.1c-0.6,0-1,0-1.3,0l-0.1,0l-0.3,0c-0.6-0.1-2-0.2-3.4-1c0,0-0.1,0-0.1,0.1c-1.3,0.5-2.3,0.6-2.9,0.6
			l-0.3,0c0,0-0.6,0-1,0c-0.7,0-1.6,0-2.3,0c-1.1,0-1.5,0-1.9-0.1l-0.1,0l-0.1,0c-0.8-0.1-3.2-0.5-5-2.6l-0.2-0.2l-0.1-0.2
			c-1.2-1.7-1.3-3.5-1.3-4.3l0-0.2V28c0-0.7,0-2.4,0.1-5.2c0-1.8,0.1-4.2,0.1-4.7c0-0.3,0-1.3,0-2.5c0-1.4-0.1-3.9-0.1-4.6
			c-0.2-1.7-0.2-2.8,0.2-4l0-0.2c0.5-1.4,1.4-2.7,2.6-3.5c1.2-0.8,2.3-1.1,3-1.3c1.7-0.4,4.4-0.5,5.7-0.5c1.4,0,2.4,0.1,3.3,0.4
			l0.1,0l0.1,0c0.6,0.2,1.1,0.5,1.6,0.8c0.9-0.4,2-0.7,3.4-0.8c0.1,0,0.2,0,0.4,0c1,0,4.4,0.1,5.7,0.2c0.7,0.1,2.6,0.2,4.3,1.6
			l0.3,0.2l0.2,0.2c1.1,1.1,1.8,2.6,2,4.3l0,0.1l0,0.1c0.1,1.2,0,2.3-0.1,3.2c0,0.2,0,0.3,0,0.5c-0.1,0.7-0.2,1.5-0.3,2.2
			c-0.1,1-0.2,1.9-0.3,2.7c-0.1,1.2-0.5,8.7-0.5,10.1v0.1c0,1.6,0,2.8-0.5,4l0,0.1l0,0.1c-0.9,2.1-2.8,3.6-5.1,4
			C44.2,36.1,40.3,36.1,40.2,36.1z"/>
		<path class="st0" d="M72.2,39.2c-3.1,0-5.5-1.9-7-3c0,0-0.4-0.3-0.4-0.3c-0.8-0.1-1.9-0.3-3.1-0.9l-0.3-0.1
			c-2.1,1.9-4.9,2.1-6.5,2.1l-0.2,0c-0.2,0-0.4,0-0.6,0c-3.4,0-6.7-0.7-9.3-2.1c-1.7-0.8-2.8-2.2-3.3-3.9c-0.4-1.3-0.3-2.8,0.2-4.1
			c0.1-0.2,0.2-0.4,0.2-0.7c0.5-1.4,0.8-2,1-2.6c1.4-3,2.8-6.1,4.2-9.5c1.3-3.3,2.3-6,3-8.5C51,3,53.5,1.1,56.5,0.8
			c1.6-0.2,3-0.2,4.4-0.2l1.9,0c0.6,0,1.1,0,1.7,0c0.1,0,0.3,0,0.4,0c2,0,3.7,0.5,5,1.6c0.5-0.2,1-0.4,1.6-0.5l0.1,0
			c3.1-0.6,6.2-1.3,9.6-1.5C82.3,0,83.3,0,84.2,0c1.7,0,3.2,0.1,4.6,0.4c2.4,0.5,4.5,1.3,6.3,2.6l0.1,0.1l0.1,0.1c1.7,1.3,3.1,3,4,5
			c0.9,1.9,1.4,4.1,1.5,6.2v0.1c0,2.3-0.5,4.6-1.5,6.6c-0.1,0.1-0.1,0.3-0.2,0.4c0.4,0.5,0.8,1.2,1.1,2l0.1,0.3l0.1,0.3
			c0.3,1.6,0.1,3.2-0.7,4.8L99.6,29l-0.1,0.2c-1.7,2.9-4.4,5.3-7.4,6.6c-0.9,0.4-1.9,0.6-2.8,0.6c-0.3,0-0.6,0-1-0.1l-0.2,0
			l-0.2-0.1c-0.9-0.2-1.6-0.5-2.2-0.9c-0.9,0.6-2,1-3.2,1.1c-0.9,0.1-1.9,0.2-3,0.3c-0.5,0-1,0.1-1.4,0.1c-0.1,0-0.1,0-0.2,0
			c-0.5,0.5-1,0.9-1.5,1.3L76.3,38C75.1,38.8,73.7,39.2,72.2,39.2z"/>
		<path class="st0" d="M101.7,36c-1.2,0-2.4-0.1-3.2-0.2l-0.2,0c-0.1,0-0.2,0-0.3,0c-0.3,0-0.8,0-1.3-0.1c-0.7-0.1-2.1-0.3-3.6-1.2
			c-1.5-0.9-2.5-2.3-3-3.9c-0.2-0.5-0.5-1.8,0-4.6c0.2-1.4,0.4-2.8,0.6-4.3c0.1-0.9,0.2-1.9,0.4-2.8c0.4-2.9,0.8-6.1,0.9-9.1
			c0-3,2.2-5.7,5.4-6.8l0.1,0c0.9-0.3,1.8-0.5,3-0.7h0c0.9-0.2,2.1-0.4,3.4-0.5c0.3,0,0.5,0,0.8,0c1.6,0,3,0.4,4.2,1.1
			c0.3,0.2,0.6,0.4,0.9,0.7c1.4-0.7,3.5-1.3,6.6-1.5c0.3,0,0.7-0.1,1.2-0.1c1.1,0,2.1,0.2,3,0.5c2.1,0.8,3.3,2.2,3.9,3.2
			c0.6,1.1,0.9,2.4,1.4,5.8l0,0.1c0.2,1,0.3,2,0.5,3c0.2,1.3,0.4,2.6,0.6,3.8c0.2,1.3,0.8,6.5,0.8,6.5l0,0.1l0,0.2
			c0.2,2.6,0.2,3.3,0.1,4l0,0.1c-0.2,1.3-0.7,2.4-1.5,3.4c-0.8,1-2.2,2.2-4.6,2.6c-1,0.2-1.9,0.2-2.5,0.2l-0.2,0
			c-0.6,0-1.5,0.1-2.4,0.1c-2,0-3.3-0.2-4.4-0.7l-0.1,0l-0.1-0.1c-0.7-0.3-1.3-0.8-1.8-1.3c-0.5,0.1-1,0.1-1.3,0.1
			c-0.3,0-0.7,0-1-0.1c-0.2,0.3-0.5,0.5-0.8,0.7C105.4,35.9,103.2,36,101.7,36z"/>
		<path class="st0" d="M33.5,64.6c-4.9,0-6.5-0.8-7.2-1.1c-1.5-0.8-2.7-2-3.3-3.5c-0.8-1.8-0.6-3.7-0.4-6.2c0-0.2,0.1-0.5,0.1-0.6
			c0.1-1.2,0.2-4.9,0.4-8.1c-1.1-0.9-2.1-2.3-2.4-4.7l0-0.1l0-0.2c-0.1-1.1-0.1-2.1-0.2-3c0-0.2,0-0.3,0-0.5c0-0.5-0.1-1.1-0.1-1.7
			c0-2.4,0.9-4.4,2.5-5.9l0.1-0.1l0.1-0.1c1.7-1.4,3.5-1.6,4.3-1.7l0.2,0c3.2-0.4,6.7-0.8,10.1-0.8c0.3,0,0.6,0,0.9,0
			c3,0.1,5.4,0.4,7.6,1.1l0.1,0c2.4,0.8,4.3,1.8,5.9,3.2c1.5,1.3,2.7,2.9,3.5,4.7c1.4,3,1.8,6.5,1.1,9.9l0,0.1
			c-0.6,2.5-1.8,4.8-3.5,6.6c-1.3,1.4-2.9,2.5-4.7,3.3c-1.5,0.7-3.3,1.1-5.3,1.2c0,0,0,0,0,0c0,0.6,0,1.6-0.4,2.8
			c-0.8,2.5-2.7,4.3-5.2,4.9c-0.6,0.2-1.2,0.2-1.6,0.3l-0.2,0C35,64.6,34,64.6,33.5,64.6z"/>
		<path class="st0" d="M63.8,63.2c-6.8,0-13-4-15.8-10.2c-1.7-3.7-2.4-7.9-1.8-11.7c0.7-4.3,3.1-8.5,6.5-11.1
			c3.3-2.6,7.2-3.4,9.9-3.6c0.6-0.1,1.2-0.1,1.8-0.1c3.5,0,6.7,0.8,9.4,2.4c2.5,1.4,4.6,3.6,6.1,6l0.1,0.2c1.1,2.1,1.8,4.5,1.9,7
			c0.3,5.8-1.9,11.7-5.9,15.9c-1.3,1.4-3,2.6-4.8,3.4l-0.1,0c-1.9,0.9-4,1.4-6.1,1.6C64.6,63.2,64.2,63.2,63.8,63.2
			C63.8,63.2,63.8,63.2,63.8,63.2z"/>
		<path class="st0" d="M84.3,64.6c-4.9,0-6.5-0.8-7.2-1.1c-1.5-0.8-2.7-2-3.3-3.5c-0.8-1.8-0.6-3.7-0.3-6.2c0-0.2,0.1-0.5,0.1-0.6
			c0.1-1.2,0.2-4.9,0.4-8.1c-1.1-0.9-2.1-2.3-2.4-4.7l0-0.1l0-0.2c-0.1-1.1-0.1-2.1-0.2-3c0-0.2,0-0.3,0-0.5
			c-0.1-0.5-0.1-1.1-0.1-1.7c0-2.4,0.9-4.4,2.4-5.9l0.1-0.1l0.1-0.1c1.7-1.4,3.5-1.6,4.3-1.7l0.2,0c3.2-0.4,6.7-0.8,10.1-0.8
			c0.3,0,0.6,0,0.9,0c3,0.1,5.4,0.4,7.6,1.1l0.1,0c2.4,0.8,4.3,1.8,5.9,3.2c1.4,1.3,2.7,2.9,3.5,4.7c1.4,3,1.8,6.5,1.1,9.9l0,0.1
			c-0.6,2.5-1.8,4.8-3.5,6.6c-1.3,1.4-2.9,2.5-4.7,3.3c-1.5,0.7-3.3,1.1-5.3,1.2c0,0,0,0,0,0c0,0.6,0,1.6-0.4,2.8
			c-0.8,2.5-2.7,4.3-5.2,4.9c-0.6,0.2-1.2,0.2-1.6,0.3l-0.2,0C85.8,64.6,84.8,64.6,84.3,64.6z"/>
		<path class="st0" d="M23.4,19.5c-0.2-0.2-0.6-0.3-0.9-0.3c-0.8,0-1.6,0.3-2.4,0.4c-0.4,0.1-2.2,0.2-2.6,0.4
			c-0.2,0.1-0.4,0.2-0.4,0.5c-0.1,0.3,0,0.7,0,1c0,0.3-0.1,0.7-0.3,0.9c-0.4,0.7-1.3,0.9-2,0.5c-0.5-0.3-0.8-0.8-1-1.3
			c-0.7-1.8-0.9-3.8-0.5-5.7c0.3-1.1,1-2.6,2.1-2.4c0.9,0.1,1.4,1.5,1.6,2.4c0.1,0.5,0.8,0.4,1.3,0.2c1-0.3,2-0.6,3-0.9
			c0.4-0.1,0.9-0.2,1.3-0.3c0.2-0.1,0.5-0.3,0.6-0.5c0.1-0.3,0-0.7-0.1-1c-0.5-1.4-1.4-2.7-2.6-3.5c-1.8-1.3-4.3-1.8-6.5-1.4
			c-1.7,0.3-3.4,1.2-4.6,2.3c-1,0.9-1.8,2.1-2.3,3.3c-0.6,1.4-0.9,3-0.9,4.5c0,2.5,0.8,5.1,2.2,7.2c0.7,1,1.6,1.9,2.7,2.5
			c1.2,0.6,2.5,0.9,3.8,1c2.1,0.1,4.3-0.3,6-1.4c1.3-0.9,2.4-2.3,2.9-3.9c0.4-1.2,0.5-2.5,0.2-3.8C23.7,20,23.7,19.7,23.4,19.5z"/>
		<path class="st0" d="M31.5,29.8c0.4,0,0.8,0,1.2-0.2c0.2-0.1,0.4-0.3,0.4-0.5c0.3-1,0.4-5.4,0.4-6.4c1.3-0.1,2.7-0.2,4-0.3
			c0.1,2.1,0,4.3,0,6.4c0,0.4,0.1,0.8,0.4,1.1c0.4,0.3,0.9,0.3,1.4,0.4c0.8,0.1,4.5,0,5.3-0.2c0.3-0.1,0.6-0.3,0.8-0.5
			c0.1-0.3,0.1-1.6,0.1-1.9c0-1.3,0.4-9.1,0.5-10.5c0.1-1.7,0.4-3.4,0.6-5.1c0.1-0.8,0.2-1.7,0.2-2.6c0-0.3-0.1-0.5-0.3-0.7
			c-0.3-0.2-0.7-0.3-1.1-0.3C44.7,8.2,40.7,8,40,8.1c-0.4,0-0.9,0.1-1.1,0.3c-0.3,0.3-0.4,0.8-0.4,1.2c-0.2,2-0.4,3.9-0.4,5.9
			c0,0.3,0,2,0,2.3c-0.6,0-4,0-4.5,0.1c0-0.7,0.1-1.3,0.1-2c0-0.5,0.1-3.7,0.1-4.2c0-0.5,0.2-2.9,0-3.4C33.6,8,33.3,7.8,33,7.7
			c-1.1-0.3-4.9-0.1-6,0.2C26.7,8,26.3,8.1,26,8.3c-0.2,0.1-0.3,0.3-0.3,0.5c-0.1,0.3,0,1.5,0.1,1.8c0.1,0.9,0.1,6.5,0.2,7.4
			c0,1.2-0.2,8.6-0.2,9.9c0,0.4,0,1,0.3,1.4c0.3,0.3,0.8,0.4,1.2,0.5C27.8,29.8,31,29.8,31.5,29.8z"/>
		<path class="st0" d="M79.1,30.7c0.8,0,1.6-0.1,2.4-0.2c0.4-0.1,0.8-0.2,1.1-0.4c0.2-0.2,0.3-0.4,0.4-0.7c0.1-0.4,0.1-0.8,0-1.3
			c-0.1-0.7-0.5-4.8-0.6-5.4c1.4,1.8,2.8,3.6,4.3,5.4c0.5,0.6,1,1.2,1.6,1.8c0.2,0.2,0.4,0.4,0.7,0.5c0.2,0,0.4,0,0.6-0.1
			c1.9-0.8,3.6-2.2,4.6-4c0.1-0.2,0.2-0.5,0.2-0.8c-0.1-0.3-0.4-0.5-0.6-0.6c-1.3-1-2.7-1.9-4.1-2.9c1.7-0.6,3.3-1.9,4.2-3.5
			c0.6-1.2,0.9-2.5,0.9-3.8c0-1.3-0.3-2.6-0.9-3.8c-0.5-1.1-1.3-2.1-2.3-2.9c-1.2-0.8-2.6-1.3-4-1.6c-1.9-0.4-3.9-0.4-5.9-0.2
			c-3,0.2-5.9,0.8-8.9,1.4c-0.3,0.1-0.6,0.2-0.8,0.3c-0.2,0.2-0.3,0.6-0.4,0.9c0,0.8,0.2,1.5,0.3,2.2c0.1,0.5,0.3,2.7,0.5,3.1
			c0.3,0.7,1.5,0.3,2.3,0c0.1,0.7,0.1,1.3,0.1,2c0,1,0.2,5,0.3,7.9c-0.9-0.9-2.5-0.8-3.6,0.2c-1-2.8-1.9-5.7-2.8-8.5
			c-0.3-1-1.8-7.1-2-8.1c-0.1-0.2-0.2-0.5-0.3-0.7c-0.2-0.4-1.2-0.5-1.7-0.5c-2.6,0.1-5.2-0.1-7.7,0.2c-0.4,0-1,0.2-1.2,0.6
			c-0.9,3.1-2,6.1-3.2,9c-1.3,3.4-2.8,6.7-4.4,10c-0.2,0.3-0.9,2.5-1.1,2.9c-0.1,0.2,0.1,0.3,0.3,0.4c2.1,1.1,4.7,1.5,7.1,1.5
			c0.7,0,2.5-0.1,2.9-0.6c0.2-0.2,0.2-0.4,0.2-0.7c0.1-0.5,0.5-3.4,0.7-4c1.5-0.1,3-0.3,4.4-0.2c0.2,1.1,0.3,2.3,0.8,3.3
			c0.2,0.3,0.4,0.6,0.7,0.8c0.4,0.2,0.9,0.3,1.4,0.4c0.5,0.1,1.1,0.1,1.6,0.1c0.4,0.4,0.8,0.8,1.3,1.2c1.2,0.9,3.2,2.6,4.4,1.8
			c1-0.7,1.8-1.8,2.3-3c0.1,0.2,0.2,0.3,0.3,0.4c0.3,0.2,0.7,0.2,1.1,0.3C77.5,30.7,78.3,30.7,79.1,30.7z M81.6,13.3
			c0.2-0.5,1.4-0.5,2-0.6c1.3-0.1,3.2,0.2,3.6,1.4c0.1,0.3,0,0.6-0.1,0.9c-0.2,0.3-0.5,0.6-0.9,0.8c-1.3,0.7-3,0.7-4.5,0.8
			C81.6,16,81.4,13.8,81.6,13.3z M59.1,21.4c0.3-1.2,2.1-7.3,2.5-8.4c0,2.7,0.2,5.5,0.5,8.2C61.1,21.2,60.1,21.2,59.1,21.4z"/>
		<path class="st0" d="M122,25.6c-0.1-0.8-0.6-5.3-0.8-6.1c-0.4-2.3-0.7-4.7-1.1-7c-0.1-0.6-0.4-3.3-0.8-3.9
			c-0.2-0.3-0.4-0.4-0.7-0.5c-0.5-0.2-1.1-0.2-1.7-0.1c-1.2,0.1-4.3,0.4-5,1.4c-0.3,0.4-0.4,0.9-0.4,1.3c-0.2,1.7-0.4,3.4-0.8,5
			c-0.1,0.7-1,4.5-1.1,5.2c-0.4-2.4-1.3-4.7-1.8-7c-0.3-1.2-0.5-2.4-0.8-3.5c-0.1-0.6-0.6-2.1-1.1-2.4c-0.4-0.3-1-0.2-1.5-0.2
			c-0.8,0-1.7,0.2-2.5,0.4c-0.8,0.2-1.7,0.3-2.4,0.6c-0.5,0.2-1.3,0.7-1.3,1.2c-0.1,3.3-0.5,6.6-1,9.8c-0.3,2.4-0.6,4.9-1,7.3
			c-0.1,0.3-0.2,1.6-0.2,1.9c0.1,0.2,0.2,0.4,0.4,0.5c0.3,0.2,0.7,0.3,1.1,0.3c0.6,0.1,1.2,0.1,1.8,0.2c1,0.1,3.5,0.4,4.3-0.2
			c0.7-0.5,0.9-2.8,1-3.7c0.2-2.3,0.2-4.7,0.3-7c0.3,0.9,1.9,6.5,2.3,7.4c0.2,0.5,0.4,1,0.9,1.2c0.6,0.3,2,0.2,2.6-0.2
			c0.2-0.2,0.3-0.4,0.5-0.6c0.4-0.7,1.3-4.5,1.5-5.3c0.2-0.8,0.5-1.6,0.8-2.4c0.2,3,0.3,6,0.8,9c0.1,0.4,0.2,1.3,0.6,1.5
			c0.7,0.3,3.3,0.2,4,0.1c0.6,0,1.3,0,1.9-0.2c0.4-0.1,0.9-0.3,1.2-0.6c0.1-0.1,0.2-0.3,0.2-0.5C122.2,28,122,26,122,25.6z"/>
		<path class="st0" d="M48.1,35c-1.1-0.9-2.4-1.6-3.7-2c-1.9-0.6-3.9-0.8-5.9-0.8c-3.4-0.1-6.8,0.3-10.2,0.8
			c-0.5,0.1-1.1,0.1-1.5,0.4c-0.4,0.3-0.5,0.9-0.5,1.4c0,0.6,0.1,1.2,0.2,1.9c0,0.9,0.1,1.9,0.2,2.9c0,0.3,0.1,0.7,0.4,0.9
			c0.4,0.3,1.7,0.1,2.2-0.1c0,1.7-0.4,11.3-0.5,13c0,0.8-0.5,3.5-0.2,4.2c0.1,0.3,0.3,0.4,0.5,0.6c1.1,0.6,5,0.6,6.2,0.4
			c0.3,0,0.6-0.1,0.8-0.2c0.5-0.1,0.8-0.5,1-0.9c0.1-0.3,0.1-0.7,0.1-1c0-0.8-0.2-5.4-0.2-6.2c1.7,0.1,3.3,0.3,5,0.3
			c1.4,0,2.9-0.2,4.2-0.8c1-0.4,1.9-1,2.6-1.8c1-1.1,1.8-2.5,2.1-4c0.4-2,0.2-4.2-0.7-6.1C49.7,36.7,49,35.8,48.1,35z M42.7,42.1
			c-0.5,0.9-2.6,1.4-3.7,1.5c-0.8,0.1-1.6,0-2.4,0c0-0.7-0.2-3,0.2-3.6c0.3-0.5,1.6-0.4,2.2-0.4c1.1,0,2.4,0.2,3.3,0.9
			C42.7,40.8,42.9,41.6,42.7,42.1z"/>
		<path class="st0" d="M74.7,38c-0.9-1.6-2.3-2.9-3.9-3.8c-2.3-1.3-5.1-1.8-7.7-1.5c-2.4,0.2-4.9,0.9-6.8,2.3
			c-2.2,1.7-3.8,4.5-4.2,7.3c-0.4,2.8,0.1,5.8,1.3,8.3c1.9,4.3,6.5,7,11.2,6.6c1.4-0.1,2.8-0.5,4-1.1c1.1-0.6,2.2-1.3,3.1-2.2
			c2.9-2.9,4.5-7.3,4.3-11.4C75.8,41,75.4,39.4,74.7,38z M67.2,47.6c-0.3,0.8-0.8,1.5-1.4,2.1c-1.2,1.1-3.1,0.9-4.2-0.3
			c-0.7-0.7-1-1.7-1.2-2.6c-0.3-1.1-0.5-2.4-0.3-3.6c0.4-2.2,2.5-4.1,4.7-3.8c0.6,0.1,1.1,0.3,1.6,0.7
			C68.3,41.6,68.2,45.4,67.2,47.6z"/>
		<path class="st0" d="M98.9,35c-1.1-0.9-2.4-1.6-3.7-2c-1.9-0.6-3.9-0.8-5.9-0.8c-3.4-0.1-6.8,0.3-10.2,0.8
			C78.6,33,78,33,77.6,33.3c-0.4,0.3-0.5,0.9-0.5,1.4c0,0.6,0.1,1.2,0.2,1.9c0,0.9,0.1,1.9,0.2,2.9c0,0.3,0.1,0.7,0.4,0.9
			c0.4,0.3,1.7,0.1,2.2-0.1c0,1.7-0.4,11.3-0.5,13c0,0.8-0.5,3.5-0.2,4.2c0.1,0.3,0.3,0.4,0.6,0.6c1.1,0.6,4.9,0.6,6.2,0.4
			c0.3,0,0.6-0.1,0.8-0.2c0.5-0.1,0.8-0.5,1-0.9c0.1-0.3,0.1-0.7,0.1-1c0-0.8-0.2-5.4-0.2-6.2c1.7,0.1,3.3,0.3,5,0.3
			c1.4,0,2.9-0.2,4.2-0.8c0.9-0.4,1.9-1,2.6-1.8c1-1.1,1.8-2.5,2.1-4c0.4-2,0.2-4.2-0.7-6.1C100.5,36.7,99.8,35.8,98.9,35z
			 M93.6,42.1c-0.5,0.9-2.6,1.4-3.7,1.5c-0.8,0.1-1.6,0-2.4,0c0-0.7-0.2-3,0.2-3.6c0.3-0.5,1.6-0.4,2.2-0.4c1.1,0,2.4,0.2,3.3,0.9
			C93.5,40.8,93.8,41.6,93.6,42.1z"/>
	</g>
	<g>
		<path class="st1" d="M14.7,29.3c-1.3-0.1-2.6-0.4-3.8-1c-1-0.6-1.9-1.5-2.6-2.5c-1.4-2-2.2-4.7-2.2-7.2c0-1.5,0.3-3.1,0.9-4.5
			c0.5-1.2,1.4-2.4,2.3-3.3c1.3-1.2,2.9-2,4.6-2.3c2.2-0.4,4.7,0.1,6.5,1.4c1.2,0.9,2.1,2.1,2.6,3.5c0.1,0.3,0.2,0.7,0.1,1
			c-0.1,0.3-0.4,0.5-0.6,0.5c-0.4,0.2-0.9,0.2-1.3,0.3c-1,0.3-2,0.6-3,0.9c-0.5,0.2-1.3,0.3-1.4-0.2c-0.2-0.9-0.7-2.3-1.6-2.4
			c-1.1-0.1-1.9,1.3-2.1,2.4c-0.4,1.8-0.1,3.9,0.5,5.7c0.2,0.5,0.5,1,1,1.3c0.7,0.4,1.6,0.2,2-0.5c0.2-0.3,0.2-0.6,0.3-0.9
			c0-0.3-0.1-0.7,0-1c0.1-0.2,0.2-0.4,0.4-0.5c0.4-0.2,2.2-0.3,2.6-0.4c0.8-0.1,1.6-0.4,2.4-0.4c0.3,0,0.7,0.1,0.9,0.3
			c0.2,0.2,0.3,0.5,0.4,0.7c0.2,1.2,0.2,2.6-0.2,3.8c-0.5,1.6-1.5,3-2.9,3.9C19,29,16.7,29.4,14.7,29.3z"/>
		<path class="st1" d="M39.4,30.1c-0.5-0.1-1-0.1-1.4-0.4c-0.3-0.2-0.4-0.7-0.4-1.1c0-2.1,0.1-4.2,0-6.4c-1.3,0.2-2.7,0.2-4,0.3
			c0,1-0.1,5.5-0.4,6.4c-0.1,0.2-0.2,0.4-0.4,0.5c-0.4,0.2-0.8,0.2-1.2,0.2c-0.6,0-3.8,0.1-4.3,0c-0.4-0.1-0.9-0.2-1.2-0.5
			c-0.3-0.4-0.3-0.9-0.3-1.4c0-1.2,0.2-8.6,0.2-9.9c0-0.9-0.1-6.5-0.2-7.4c0-0.3-0.2-1.5-0.1-1.8c0.1-0.2,0.2-0.3,0.3-0.5
			c0.3-0.2,0.7-0.3,1.1-0.4c1.1-0.3,4.9-0.5,6-0.2c0.3,0.1,0.6,0.3,0.7,0.6c0.2,0.5,0.1,2.9,0,3.4c0,0.5-0.1,3.7-0.1,4.2
			c0,0.7-0.1,1.3-0.1,2c0.6-0.1,4-0.1,4.5-0.1c0-0.3,0-2,0-2.3c0.1-2,0.2-4,0.4-5.9c0-0.4,0.1-0.9,0.4-1.2c0.3-0.3,0.8-0.3,1.1-0.3
			c0.7,0,4.7,0.1,5.4,0.2c0.4,0,0.8,0.1,1.1,0.3c0.2,0.2,0.3,0.5,0.3,0.7c0.1,0.8-0.1,1.7-0.2,2.6c-0.2,1.7-0.5,3.4-0.6,5.1
			c-0.1,1.3-0.5,9.1-0.5,10.5c0,0.3,0,1.6-0.1,1.9c-0.1,0.3-0.4,0.5-0.8,0.5C43.9,30.1,40.2,30.2,39.4,30.1z"/>
		<path class="st1" d="M47.5,29.6c-0.2-0.1-0.4-0.2-0.3-0.4c0.2-0.4,0.9-2.5,1.1-2.9c1.6-3.3,3-6.6,4.4-10c1.2-3,2.3-6,3.2-9
			C56,7,56.7,6.8,57.1,6.7c2.6-0.3,5.1-0.1,7.7-0.2c0.5,0,1.4,0.1,1.7,0.5c0.1,0.2,0.2,0.5,0.3,0.7c0.3,1,1.8,7.1,2,8.1
			c1.2,4.2,2.5,8.4,4.3,12.4c0.1,0.1,0.3,0.6,0.3,0.8c0,0.1-0.2,0.2-0.3,0.3c-0.8,0.4-4.5,0.8-5.5,0.8c-0.6,0-1.3,0-1.9-0.1
			c-0.5-0.1-1-0.2-1.4-0.4c-0.3-0.2-0.5-0.5-0.7-0.8c-0.5-1-0.6-2.2-0.8-3.3c-1.5-0.1-3,0.2-4.4,0.2c-0.1,0.5-0.6,3.5-0.7,4
			c0,0.3,0,0.5-0.2,0.7C57,31,55.3,31,54.6,31C52.2,31.1,49.6,30.7,47.5,29.6z M59.1,21.4c1-0.2,2-0.2,3-0.2
			c-0.3-2.7-0.5-5.5-0.5-8.2C61.2,14.1,59.4,20.2,59.1,21.4z"/>
		<path class="st1" d="M76.7,30.7c-0.4-0.1-0.7-0.1-1.1-0.3c-0.2-0.1-0.4-0.4-0.4-0.6c-0.1-0.4-0.1-2.5,0-2.9
			c0-1.3-0.3-9.3-0.3-10.7c0-0.7,0-1.3-0.1-2c-0.8,0.2-1.9,0.7-2.3,0c-0.2-0.5-0.4-2.6-0.5-3.1c-0.1-0.8-0.3-1.5-0.3-2.2
			c0-0.3,0.1-0.7,0.4-0.9c0.2-0.2,0.5-0.3,0.8-0.3c2.9-0.6,5.9-1.2,8.9-1.4c2-0.2,4-0.2,5.9,0.2c1.4,0.3,2.8,0.8,4,1.6
			c1,0.8,1.8,1.7,2.3,2.9c0.6,1.2,0.9,2.5,0.9,3.8c0,1.3-0.3,2.7-0.9,3.8c-0.8,1.6-2.4,2.9-4.2,3.5c1.3,1,2.7,1.9,4.1,2.9
			c0.2,0.2,0.5,0.4,0.6,0.6c0.1,0.3-0.1,0.6-0.2,0.8c-1,1.8-2.7,3.2-4.6,4c-0.2,0.1-0.4,0.2-0.6,0.1c-0.3-0.1-0.5-0.3-0.7-0.5
			c-0.6-0.5-1.1-1.2-1.6-1.8c-1.5-1.8-2.9-3.6-4.3-5.3c0.1,0.7,0.5,4.8,0.6,5.4c0,0.4,0.1,0.8,0,1.3c-0.1,0.2-0.2,0.5-0.4,0.7
			c-0.3,0.2-0.7,0.4-1.1,0.4c-0.8,0.1-1.6,0.2-2.4,0.2C78.3,30.7,77.5,30.7,76.7,30.7z M81.7,16.6c1.5-0.1,3.2-0.1,4.5-0.8
			c0.4-0.2,0.7-0.5,0.9-0.8c0.2-0.3,0.2-0.6,0.1-0.9c-0.4-1.2-2.3-1.5-3.6-1.4c-0.6,0.1-1.8,0.1-2,0.6C81.4,13.8,81.6,16,81.7,16.6z
			"/>
		<path class="st1" d="M99.3,29.9c-0.6-0.1-1.2-0.1-1.8-0.2c-0.4,0-0.8-0.1-1.1-0.3c-0.2-0.1-0.4-0.3-0.4-0.5
			c-0.1-0.3,0.1-1.5,0.2-1.9c0.4-2.4,0.6-4.9,1-7.3c0.4-3.2,0.9-6.5,1-9.8c0-0.6,0.8-1,1.3-1.2c0.8-0.2,1.6-0.4,2.4-0.6
			c0.8-0.2,1.7-0.4,2.5-0.4c0.5,0,1.1-0.1,1.5,0.2c0.5,0.3,1,1.8,1.1,2.4c0.3,1.2,0.5,2.4,0.8,3.5c0.6,2.3,1.4,4.7,1.8,7
			c0.2-0.7,1-4.5,1.1-5.2c0.4-1.7,0.6-3.3,0.8-5c0.1-0.5,0.2-0.9,0.4-1.3c0.7-1,3.7-1.3,5-1.4c0.6-0.1,1.2-0.1,1.7,0.1
			c0.3,0.1,0.5,0.2,0.7,0.5c0.3,0.5,0.7,3.2,0.8,3.9c0.4,2.3,0.7,4.7,1.1,7c0.1,0.8,0.7,5.3,0.8,6.1c0,0.4,0.2,2.4,0.1,2.8
			c0,0.2-0.1,0.4-0.2,0.5c-0.3,0.4-0.7,0.5-1.2,0.6c-0.6,0.1-1.3,0.1-1.9,0.2c-0.7,0.1-3.3,0.2-4-0.1c-0.4-0.2-0.5-1.1-0.6-1.5
			c-0.5-3-0.6-6-0.8-9c-0.3,0.8-0.5,1.6-0.8,2.4c-0.2,0.8-1.1,4.5-1.5,5.3c-0.2,0.2-0.3,0.5-0.5,0.6c-0.6,0.4-1.9,0.5-2.6,0.2
			c-0.4-0.2-0.7-0.8-0.9-1.2c-0.3-0.9-1.9-6.5-2.3-7.4c-0.1,2.3-0.1,4.7-0.3,7c-0.1,0.9-0.3,3.2-1,3.7
			C102.8,30.3,100.3,30,99.3,29.9z"/>
	</g>
	<g>
		<path class="st2" d="M29,58.1c-0.2-0.1-0.4-0.3-0.5-0.6c-0.3-0.7,0.2-3.4,0.2-4.2c0.1-1.7,0.5-11.3,0.5-13
			c-0.5,0.2-1.8,0.4-2.2,0.1c-0.3-0.2-0.3-0.6-0.4-0.9c-0.1-0.9-0.1-1.9-0.2-2.9c0-0.7-0.2-1.3-0.2-1.9c0-0.5,0.1-1.1,0.5-1.4
			c0.4-0.3,1-0.3,1.5-0.4c3.4-0.4,6.8-0.8,10.2-0.8c2,0,4,0.2,5.9,0.8c1.4,0.4,2.7,1.1,3.7,2c0.9,0.8,1.6,1.8,2,2.8
			c0.9,1.9,1.1,4.1,0.7,6.1c-0.4,1.5-1.1,2.9-2.1,4c-0.7,0.8-1.7,1.4-2.6,1.8c-1.3,0.6-2.8,0.7-4.2,0.8c-1.7,0-3.3-0.2-5-0.3
			c0,0.8,0.2,5.4,0.2,6.2c0,0.4,0,0.7-0.1,1c-0.2,0.5-0.5,0.8-1,0.9c-0.3,0.1-0.5,0.1-0.8,0.2C34,58.6,30.1,58.6,29,58.1z M39,43.5
			c1.1,0,3.2-0.5,3.7-1.5c0.2-0.5,0-1.2-0.4-1.6c-0.8-0.8-2.1-0.9-3.3-0.9c-0.6,0-1.9,0-2.2,0.4c-0.4,0.6-0.2,2.9-0.2,3.6
			C37.4,43.5,38.2,43.6,39,43.5z"/>
		<path class="st2" d="M75.9,42.5c-0.1-1.5-0.5-3.2-1.2-4.5c-0.9-1.6-2.3-2.9-3.9-3.8c-2.3-1.3-5.1-1.8-7.7-1.5
			c-2.4,0.2-4.9,0.9-6.8,2.3c-2.2,1.7-3.8,4.5-4.2,7.3c-0.4,2.8,0.1,5.8,1.3,8.3c1.9,4.3,6.5,7,11.2,6.6c1.4-0.1,2.8-0.5,4-1.1
			c1.1-0.6,2.2-1.3,3.1-2.2C74.5,51,76.2,46.6,75.9,42.5z M67.2,47.6c-0.3,0.8-0.8,1.5-1.4,2.1c-1.2,1.1-3.1,0.9-4.2-0.3
			c-0.7-0.7-1-1.7-1.2-2.6c-0.3-1.1-0.5-2.4-0.3-3.6c0.4-2.2,2.5-4.1,4.7-3.8c0.6,0.1,1.1,0.3,1.6,0.7
			C68.3,41.6,68.2,45.4,67.2,47.6z"/>
		<path class="st3" d="M68.5,31.2c-0.8-0.6-1.6-1.4-2.1-2.3c-0.6-1.2-0.5-2.7,0.7-3.3c1-0.5,2.6,0.2,3.4,1.1c0-0.5,0.2-1,0.4-1.5
			c0.9-2,3.9-2.4,4.7-0.4c1.1,2.6-0.3,6.6-2.6,8.2C71.7,33.9,69.7,32.1,68.5,31.2z"/>
		<path class="st2" d="M79.9,58.1c-0.2-0.1-0.4-0.3-0.6-0.6c-0.3-0.7,0.2-3.4,0.2-4.2c0.1-1.7,0.6-11.3,0.5-13
			c-0.6,0.2-1.8,0.4-2.2,0.1c-0.3-0.2-0.3-0.6-0.4-0.9c-0.1-0.9-0.1-1.9-0.2-2.9c0-0.7-0.2-1.3-0.2-1.9c0-0.5,0.1-1.1,0.5-1.4
			c0.4-0.3,1-0.3,1.5-0.4c3.4-0.4,6.8-0.8,10.2-0.8c2,0,4,0.2,5.9,0.8c1.4,0.4,2.7,1.1,3.7,2c0.9,0.8,1.6,1.8,2.1,2.8
			c0.9,1.9,1.1,4.1,0.7,6.1c-0.4,1.5-1.1,2.9-2.1,4c-0.7,0.8-1.7,1.4-2.6,1.8c-1.3,0.6-2.8,0.7-4.2,0.8c-1.7,0-3.3-0.2-5-0.3
			c0,0.8,0.2,5.4,0.2,6.2c0,0.4,0,0.7-0.1,1c-0.2,0.5-0.5,0.8-1,0.9c-0.3,0.1-0.6,0.1-0.8,0.2C84.8,58.6,80.9,58.6,79.9,58.1z
			 M89.8,43.5c1.1,0,3.2-0.5,3.7-1.5c0.2-0.5,0-1.2-0.4-1.6c-0.8-0.8-2.1-0.9-3.3-0.9c-0.6,0-1.9,0-2.2,0.4
			c-0.4,0.6-0.2,2.9-0.2,3.6C88.2,43.5,89,43.6,89.8,43.5z"/>
	</g>
</g>
</svg>
